<svg version="1.1" xmlns="http://www.w3.org/2000/svg" xmlns:xlink="http://www.w3.org/1999/xlink" width="238" height="676"><defs/><g><text fill="#eeeeee" stroke="none" font-family="Arial" font-size="24px" font-style="normal" font-weight="normal" text-decoration="none" x="0" y="0">UNREGISTERED</text><text fill="#eeeeee" stroke="none" font-family="Arial" font-size="24px" font-style="normal" font-weight="normal" text-decoration="none" x="0" y="30">UNREGISTERED</text><text fill="#eeeeee" stroke="none" font-family="Arial" font-size="24px" font-style="normal" font-weight="normal" text-decoration="none" x="0" y="60">UNREGISTERED</text><text fill="#eeeeee" stroke="none" font-family="Arial" font-size="24px" font-style="normal" font-weight="normal" text-decoration="none" x="0" y="90">UNREGISTERED</text><text fill="#eeeeee" stroke="none" font-family="Arial" font-size="24px" font-style="normal" font-weight="normal" text-decoration="none" x="0" y="120">UNREGISTERED</text><text fill="#eeeeee" stroke="none" font-family="Arial" font-size="24px" font-style="normal" font-weight="normal" text-decoration="none" x="0" y="150">UNREGISTERED</text><text fill="#eeeeee" stroke="none" font-family="Arial" font-size="24px" font-style="normal" font-weight="normal" text-decoration="none" x="0" y="180">UNREGISTERED</text><text fill="#eeeeee" stroke="none" font-family="Arial" font-size="24px" font-style="normal" font-weight="normal" text-decoration="none" x="0" y="210">UNREGISTERED</text><text fill="#eeeeee" stroke="none" font-family="Arial" font-size="24px" font-style="normal" font-weight="normal" text-decoration="none" x="0" y="240">UNREGISTERED</text><text fill="#eeeeee" stroke="none" font-family="Arial" font-size="24px" font-style="normal" font-weight="normal" text-decoration="none" x="0" y="270">UNREGISTERED</text><text fill="#eeeeee" stroke="none" font-family="Arial" font-size="24px" font-style="normal" font-weight="normal" text-decoration="none" x="0" y="300">UNREGISTERED</text><text fill="#eeeeee" stroke="none" font-family="Arial" font-size="24px" font-style="normal" font-weight="normal" text-decoration="none" x="0" y="330">UNREGISTERED</text><text fill="#eeeeee" stroke="none" font-family="Arial" font-size="24px" font-style="normal" font-weight="normal" text-decoration="none" x="0" y="360">UNREGISTERED</text><text fill="#eeeeee" stroke="none" font-family="Arial" font-size="24px" font-style="normal" font-weight="normal" text-decoration="none" x="0" y="390">UNREGISTERED</text><text fill="#eeeeee" stroke="none" font-family="Arial" font-size="24px" font-style="normal" font-weight="normal" text-decoration="none" x="0" y="420">UNREGISTERED</text><text fill="#eeeeee" stroke="none" font-family="Arial" font-size="24px" font-style="normal" font-weight="normal" text-decoration="none" x="0" y="450">UNREGISTERED</text><text fill="#eeeeee" stroke="none" font-family="Arial" font-size="24px" font-style="normal" font-weight="normal" text-decoration="none" x="0" y="480">UNREGISTERED</text><text fill="#eeeeee" stroke="none" font-family="Arial" font-size="24px" font-style="normal" font-weight="normal" text-decoration="none" x="0" y="510">UNREGISTERED</text><text fill="#eeeeee" stroke="none" font-family="Arial" font-size="24px" font-style="normal" font-weight="normal" text-decoration="none" x="0" y="540">UNREGISTERED</text><text fill="#eeeeee" stroke="none" font-family="Arial" font-size="24px" font-style="normal" font-weight="normal" text-decoration="none" x="0" y="570">UNREGISTERED</text><text fill="#eeeeee" stroke="none" font-family="Arial" font-size="24px" font-style="normal" font-weight="normal" text-decoration="none" x="0" y="600">UNREGISTERED</text><text fill="#eeeeee" stroke="none" font-family="Arial" font-size="24px" font-style="normal" font-weight="normal" text-decoration="none" x="0" y="630">UNREGISTERED</text><text fill="#eeeeee" stroke="none" font-family="Arial" font-size="24px" font-style="normal" font-weight="normal" text-decoration="none" x="0" y="660">UNREGISTERED</text><text fill="#eeeeee" stroke="none" font-family="Arial" font-size="24px" font-style="normal" font-weight="normal" text-decoration="none" x="200" y="0">UNREGISTERED</text><text fill="#eeeeee" stroke="none" font-family="Arial" font-size="24px" font-style="normal" font-weight="normal" text-decoration="none" x="200" y="30">UNREGISTERED</text><text fill="#eeeeee" stroke="none" font-family="Arial" font-size="24px" font-style="normal" font-weight="normal" text-decoration="none" x="200" y="60">UNREGISTERED</text><text fill="#eeeeee" stroke="none" font-family="Arial" font-size="24px" font-style="normal" font-weight="normal" text-decoration="none" x="200" y="90">UNREGISTERED</text><text fill="#eeeeee" stroke="none" font-family="Arial" font-size="24px" font-style="normal" font-weight="normal" text-decoration="none" x="200" y="120">UNREGISTERED</text><text fill="#eeeeee" stroke="none" font-family="Arial" font-size="24px" font-style="normal" font-weight="normal" text-decoration="none" x="200" y="150">UNREGISTERED</text><text fill="#eeeeee" stroke="none" font-family="Arial" font-size="24px" font-style="normal" font-weight="normal" text-decoration="none" x="200" y="180">UNREGISTERED</text><text fill="#eeeeee" stroke="none" font-family="Arial" font-size="24px" font-style="normal" font-weight="normal" text-decoration="none" x="200" y="210">UNREGISTERED</text><text fill="#eeeeee" stroke="none" font-family="Arial" font-size="24px" font-style="normal" font-weight="normal" text-decoration="none" x="200" y="240">UNREGISTERED</text><text fill="#eeeeee" stroke="none" font-family="Arial" font-size="24px" font-style="normal" font-weight="normal" text-decoration="none" x="200" y="270">UNREGISTERED</text><text fill="#eeeeee" stroke="none" font-family="Arial" font-size="24px" font-style="normal" font-weight="normal" text-decoration="none" x="200" y="300">UNREGISTERED</text><text fill="#eeeeee" stroke="none" font-family="Arial" font-size="24px" font-style="normal" font-weight="normal" text-decoration="none" x="200" y="330">UNREGISTERED</text><text fill="#eeeeee" stroke="none" font-family="Arial" font-size="24px" font-style="normal" font-weight="normal" text-decoration="none" x="200" y="360">UNREGISTERED</text><text fill="#eeeeee" stroke="none" font-family="Arial" font-size="24px" font-style="normal" font-weight="normal" text-decoration="none" x="200" y="390">UNREGISTERED</text><text fill="#eeeeee" stroke="none" font-family="Arial" font-size="24px" font-style="normal" font-weight="normal" text-decoration="none" x="200" y="420">UNREGISTERED</text><text fill="#eeeeee" stroke="none" font-family="Arial" font-size="24px" font-style="normal" font-weight="normal" text-decoration="none" x="200" y="450">UNREGISTERED</text><text fill="#eeeeee" stroke="none" font-family="Arial" font-size="24px" font-style="normal" font-weight="normal" text-decoration="none" x="200" y="480">UNREGISTERED</text><text fill="#eeeeee" stroke="none" font-family="Arial" font-size="24px" font-style="normal" font-weight="normal" text-decoration="none" x="200" y="510">UNREGISTERED</text><text fill="#eeeeee" stroke="none" font-family="Arial" font-size="24px" font-style="normal" font-weight="normal" text-decoration="none" x="200" y="540">UNREGISTERED</text><text fill="#eeeeee" stroke="none" font-family="Arial" font-size="24px" font-style="normal" font-weight="normal" text-decoration="none" x="200" y="570">UNREGISTERED</text><text fill="#eeeeee" stroke="none" font-family="Arial" font-size="24px" font-style="normal" font-weight="normal" text-decoration="none" x="200" y="600">UNREGISTERED</text><text fill="#eeeeee" stroke="none" font-family="Arial" font-size="24px" font-style="normal" font-weight="normal" text-decoration="none" x="200" y="630">UNREGISTERED</text><text fill="#eeeeee" stroke="none" font-family="Arial" font-size="24px" font-style="normal" font-weight="normal" text-decoration="none" x="200" y="660">UNREGISTERED</text><g transform="translate(-1606,-1510) scale(1,1)"><rect fill="#ffffff" stroke="none" x="1624" y="1520" width="73.18994140625" height="32"/></g><g transform="translate(-1606,-1510) scale(1,1)"><path fill="none" stroke="#000000" d="M 1624 1520 L 1697.18994140625 1520 L 1697.18994140625 1552 L 1624 1552 L 1624 1520 Z Z" stroke-miterlimit="10"/></g><g transform="translate(-1606,-1510) scale(1,1)"><g><path fill="none" stroke="none"/><text fill="#000000" stroke="none" font-family="Arial" font-size="13px" font-style="normal" font-weight="normal" text-decoration="none" x="1634.594970703125" y="1542.5">信息上报</text></g></g><g transform="translate(-1606,-1510) scale(1,1)"><rect fill="#ffffff" stroke="none" x="1624" y="1672" width="73.18994140625" height="32"/></g><g transform="translate(-1606,-1510) scale(1,1)"><path fill="none" stroke="#000000" d="M 1624 1672 L 1697.18994140625 1672 L 1697.18994140625 1704 L 1624 1704 L 1624 1672 Z Z" stroke-miterlimit="10"/></g><g transform="translate(-1606,-1510) scale(1,1)"><g><path fill="none" stroke="none"/><text fill="#000000" stroke="none" font-family="Arial" font-size="13px" font-style="normal" font-weight="normal" text-decoration="none" x="1634.594970703125" y="1694.5">信息审批</text></g></g><g transform="translate(-1606,-1510) scale(1,1)"><path fill="none" stroke="#000000" d="M 1660 1552 L 1660 1672" stroke-miterlimit="10"/></g><g transform="translate(-1606,-1510) scale(1,1)"><path fill="#000000" stroke="none" d="M 1655.7904822439841 1661.837325142376 L 1660 1672 L 1664.2095177560159 1661.837325142376"/></g><g transform="translate(-1606,-1510) scale(1,1)"><path fill="none" stroke="#000000" d="M 1655.7904822439841 1661.837325142376 L 1660 1672 L 1664.2095177560159 1661.837325142376 L 1655.7904822439841 1661.837325142376" stroke-miterlimit="10"/></g><g transform="translate(-1606,-1510) scale(1,1)"><g><path fill="none" stroke="none"/><text fill="#000000" stroke="none" font-family="Arial" font-size="13px" font-style="normal" font-weight="normal" text-decoration="none" x="1654.5" y="1617.5">待提请</text></g></g><g transform="translate(-1606,-1510) scale(1,1)"><rect fill="#ffffff" stroke="none" x="1624" y="1792" width="73.18994140625" height="32"/></g><g transform="translate(-1606,-1510) scale(1,1)"><path fill="none" stroke="#000000" d="M 1624 1792 L 1697.18994140625 1792 L 1697.18994140625 1824 L 1624 1824 L 1624 1792 Z Z" stroke-miterlimit="10"/></g><g transform="translate(-1606,-1510) scale(1,1)"><g><path fill="none" stroke="none"/><text fill="#000000" stroke="none" font-family="Arial" font-size="13px" font-style="normal" font-weight="normal" text-decoration="none" x="1647.594970703125" y="1814.5">交办</text></g></g><g transform="translate(-1606,-1510) scale(1,1)"><path fill="none" stroke="#000000" d="M 1660 1704 L 1660 1792" stroke-miterlimit="10"/></g><g transform="translate(-1606,-1510) scale(1,1)"><path fill="#000000" stroke="none" d="M 1655.7904822439841 1781.837325142376 L 1660 1792 L 1664.2095177560159 1781.837325142376"/></g><g transform="translate(-1606,-1510) scale(1,1)"><path fill="none" stroke="#000000" d="M 1655.7904822439841 1781.837325142376 L 1660 1792 L 1664.2095177560159 1781.837325142376 L 1655.7904822439841 1781.837325142376" stroke-miterlimit="10"/></g><g transform="translate(-1606,-1510) scale(1,1)"><g><path fill="none" stroke="none"/><text fill="#000000" stroke="none" font-family="Arial" font-size="13px" font-style="normal" font-weight="normal" text-decoration="none" x="1654.5" y="1753.5">待交办</text></g></g><g transform="translate(-1606,-1510) scale(1,1)"><rect fill="#ffffff" stroke="none" x="1760" y="1792" width="73.18994140625" height="32"/></g><g transform="translate(-1606,-1510) scale(1,1)"><path fill="none" stroke="#000000" d="M 1760 1792 L 1833.18994140625 1792 L 1833.18994140625 1824 L 1760 1824 L 1760 1792 Z Z" stroke-miterlimit="10"/></g><g transform="translate(-1606,-1510) scale(1,1)"><g><path fill="none" stroke="none"/><text fill="#000000" stroke="none" font-family="Arial" font-size="13px" font-style="normal" font-weight="normal" text-decoration="none" x="1783.594970703125" y="1814.5">研判</text></g></g><g transform="translate(-1606,-1510) scale(1,1)"><path fill="none" stroke="#000000" d="M 1697 1688 L 1792 1688 M 1792 1688 A 8 8 0 0 1 1800 1696 L 1800 1792" stroke-miterlimit="10"/></g><g transform="translate(-1606,-1510) scale(1,1)"><path fill="#000000" stroke="none" d="M 1795.7904822439841 1781.837325142376 L 1800 1792 L 1804.2095177560159 1781.837325142376"/></g><g transform="translate(-1606,-1510) scale(1,1)"><path fill="none" stroke="#000000" d="M 1795.7904822439841 1781.837325142376 L 1800 1792 L 1804.2095177560159 1781.837325142376 L 1795.7904822439841 1781.837325142376" stroke-miterlimit="10"/></g><g transform="translate(-1606,-1510) scale(1,1)"><g><path fill="none" stroke="none"/><text fill="#000000" stroke="none" font-family="Arial" font-size="13px" font-style="normal" font-weight="normal" text-decoration="none" x="1795.5" y="1693.5">待研判</text></g></g><g transform="translate(-1606,-1510) scale(1,1)"><rect fill="#ffffff" stroke="none" x="1624" y="1928" width="73.18994140625" height="32"/></g><g transform="translate(-1606,-1510) scale(1,1)"><path fill="none" stroke="#000000" d="M 1624 1928 L 1697.18994140625 1928 L 1697.18994140625 1960 L 1624 1960 L 1624 1928 Z Z" stroke-miterlimit="10"/></g><g transform="translate(-1606,-1510) scale(1,1)"><g><path fill="none" stroke="none"/><text fill="#000000" stroke="none" font-family="Arial" font-size="13px" font-style="normal" font-weight="normal" text-decoration="none" x="1641.094970703125" y="1950.5">待提测</text></g></g><g transform="translate(-1606,-1510) scale(1,1)"><rect fill="#ffffff" stroke="none" x="1624" y="2032" width="73.18994140625" height="32"/></g><g transform="translate(-1606,-1510) scale(1,1)"><path fill="none" stroke="#000000" d="M 1624 2032 L 1697.18994140625 2032 L 1697.18994140625 2064 L 1624 2064 L 1624 2032 Z Z" stroke-miterlimit="10"/></g><g transform="translate(-1606,-1510) scale(1,1)"><g><path fill="none" stroke="none"/><text fill="#000000" stroke="none" font-family="Arial" font-size="13px" font-style="normal" font-weight="normal" text-decoration="none" x="1647.594970703125" y="2054.5">决策</text></g></g><g transform="translate(-1606,-1510) scale(1,1)"><path fill="none" stroke="#000000" d="M 1660 1824 L 1660 1928" stroke-miterlimit="10"/></g><g transform="translate(-1606,-1510) scale(1,1)"><path fill="#000000" stroke="none" d="M 1655.7904822439841 1917.837325142376 L 1660 1928 L 1664.2095177560159 1917.837325142376"/></g><g transform="translate(-1606,-1510) scale(1,1)"><path fill="none" stroke="#000000" d="M 1655.7904822439841 1917.837325142376 L 1660 1928 L 1664.2095177560159 1917.837325142376 L 1655.7904822439841 1917.837325142376" stroke-miterlimit="10"/></g><g transform="translate(-1606,-1510) scale(1,1)"><g><path fill="none" stroke="none"/><text fill="#000000" stroke="none" font-family="Arial" font-size="13px" font-style="normal" font-weight="normal" text-decoration="none" x="1615.5" y="1881.5">交办完成，整理审核</text></g></g><g transform="translate(-1606,-1510) scale(1,1)"><path fill="none" stroke="#000000" d="M 1660 1960 L 1660 2032" stroke-miterlimit="10"/></g><g transform="translate(-1606,-1510) scale(1,1)"><path fill="#000000" stroke="none" d="M 1655.7904822439841 2021.837325142376 L 1660 2032 L 1664.2095177560159 2021.837325142376"/></g><g transform="translate(-1606,-1510) scale(1,1)"><path fill="none" stroke="#000000" d="M 1655.7904822439841 2021.837325142376 L 1660 2032 L 1664.2095177560159 2021.837325142376 L 1655.7904822439841 2021.837325142376" stroke-miterlimit="10"/></g><g transform="translate(-1606,-1510) scale(1,1)"><g><path fill="none" stroke="none"/><text fill="#000000" stroke="none" font-family="Arial" font-size="13px" font-style="normal" font-weight="normal" text-decoration="none" x="1654.5" y="2001.5">待决策</text></g></g><g transform="translate(-1606,-1510) scale(1,1)"><rect fill="#ffffff" stroke="none" x="1632" y="2144" width="73.18994140625" height="32"/></g><g transform="translate(-1606,-1510) scale(1,1)"><path fill="none" stroke="#000000" d="M 1632 2144 L 1705.18994140625 2144 L 1705.18994140625 2176 L 1632 2176 L 1632 2144 Z Z" stroke-miterlimit="10"/></g><g transform="translate(-1606,-1510) scale(1,1)"><g><path fill="none" stroke="none"/><text fill="#000000" stroke="none" font-family="Arial" font-size="13px" font-style="normal" font-weight="normal" text-decoration="none" x="1655.594970703125" y="2166.5">落地</text></g></g><g transform="translate(-1606,-1510) scale(1,1)"><path fill="none" stroke="#000000" d="M 1661 2064 L 1661 2144" stroke-miterlimit="10"/></g><g transform="translate(-1606,-1510) scale(1,1)"><path fill="#000000" stroke="none" d="M 1656.7904822439841 2133.837325142376 L 1661 2144 L 1665.2095177560159 2133.837325142376"/></g><g transform="translate(-1606,-1510) scale(1,1)"><path fill="none" stroke="#000000" d="M 1656.7904822439841 2133.837325142376 L 1661 2144 L 1665.2095177560159 2133.837325142376 L 1656.7904822439841 2133.837325142376" stroke-miterlimit="10"/></g></g></svg>