<svg version="1.1" xmlns="http://www.w3.org/2000/svg" xmlns:xlink="http://www.w3.org/1999/xlink" width="332" height="80"><defs/><g><text fill="#eeeeee" stroke="none" font-family="Arial" font-size="24px" font-style="normal" font-weight="normal" text-decoration="none" x="0" y="0">UNREGISTERED</text><text fill="#eeeeee" stroke="none" font-family="Arial" font-size="24px" font-style="normal" font-weight="normal" text-decoration="none" x="0" y="30">UNREGISTERED</text><text fill="#eeeeee" stroke="none" font-family="Arial" font-size="24px" font-style="normal" font-weight="normal" text-decoration="none" x="0" y="60">UNREGISTERED</text><text fill="#eeeeee" stroke="none" font-family="Arial" font-size="24px" font-style="normal" font-weight="normal" text-decoration="none" x="200" y="0">UNREGISTERED</text><text fill="#eeeeee" stroke="none" font-family="Arial" font-size="24px" font-style="normal" font-weight="normal" text-decoration="none" x="200" y="30">UNREGISTERED</text><text fill="#eeeeee" stroke="none" font-family="Arial" font-size="24px" font-style="normal" font-weight="normal" text-decoration="none" x="200" y="60">UNREGISTERED</text><g transform="translate(-118,-262) scale(1,1)"><rect fill="#C0C0C0" stroke="none" x="135" y="295" width="50.919921875" height="44" opacity="0.2"/></g><g transform="translate(-118,-262) scale(1,1)"><rect fill="#ffffff" stroke="none" x="128" y="288" width="50.919921875" height="44"/></g><g transform="translate(-118,-262) scale(1,1)"><path fill="none" stroke="#000000" d="M 128 288 L 178.919921875 288 L 178.919921875 332 L 128 332 L 128 288 Z Z" stroke-miterlimit="10"/></g><g transform="translate(-118,-262) scale(1,1)"><path fill="none" stroke="#000000" d="M 128 313 L 178.919921875 313" stroke-miterlimit="10"/></g><g transform="translate(-118,-262) scale(1,1)"><path fill="none" stroke="#000000" d="M 128 323 L 178.919921875 323" stroke-miterlimit="10"/></g><g transform="translate(-118,-262) scale(1,1)"><g><path fill="none" stroke="none"/><text fill="#000000" stroke="none" font-family="Arial" font-size="13px" font-style="normal" font-weight="bold" text-decoration="none" x="133.9599609375" y="307.5">浙里办</text></g></g><g transform="translate(-118,-262) scale(1,1)"><rect fill="#C0C0C0" stroke="none" x="351" y="279" width="96" height="56" opacity="0.2"/></g><g transform="translate(-118,-262) scale(1,1)"><rect fill="#ffffff" stroke="none" x="344" y="272" width="96" height="56"/></g><g transform="translate(-118,-262) scale(1,1)"><path fill="none" stroke="#000000" d="M 344 272 L 440 272 L 440 328 L 344 328 L 344 272 Z Z" stroke-miterlimit="10"/></g><g transform="translate(-118,-262) scale(1,1)"><path fill="none" stroke="#000000" d="M 344 297 L 440 297" stroke-miterlimit="10"/></g><g transform="translate(-118,-262) scale(1,1)"><path fill="none" stroke="#000000" d="M 344 307 L 440 307" stroke-miterlimit="10"/></g><g transform="translate(-118,-262) scale(1,1)"><g><path fill="none" stroke="none"/><text fill="#000000" stroke="none" font-family="Arial" font-size="13px" font-style="normal" font-weight="bold" text-decoration="none" x="364.194091796875" y="291.5">WEB平台</text></g></g></g></svg>